<svg width="28" height="22" viewBox="0 0 28 22" fill="none" xmlns="http://www.w3.org/2000/svg">
  <g clip-path="url(#clip0_5174_6947)">
  <path d="M2 2H26V20H2V2Z" fill="#012169"/>
  <path d="M4.8125 2L13.9625 8.7875L23.075 2H26V4.325L17 11.0375L26 17.7125V20H23L14 13.2875L5.0375 20H2V17.75L10.9625 11.075L2 4.4V2H4.8125Z" fill="white"/>
  <path d="M17.9 12.5375L26 18.5V20L15.8375 12.5375H17.9ZM11 13.2875L11.225 14.6L4.025 20H2L11 13.2875ZM26 2V2.1125L16.6625 9.1625L16.7375 7.5125L24.125 2H26ZM2 2L10.9625 8.6H8.7125L2 3.575V2Z" fill="#C8102E"/>
  <path d="M11.0375 2V20H17.0375V2H11.0375ZM2 8V14H26V8H2Z" fill="white"/>
  <path d="M2 9.2375V12.8375H26V9.2375H2ZM12.2375 2V20H15.8375V2H12.2375Z" fill="#C8102E"/>
  </g>
  <rect x="1" y="1" width="26" height="20" rx="5" stroke="#DB0060" stroke-width="2"/>
  <defs>
  <clipPath id="clip0_5174_6947">
  <rect x="2" y="2" width="24" height="18" rx="4" fill="white"/>
  </clipPath>
  </defs>
  </svg>
  