<svg width="226" height="131" viewBox="0 0 226 131" fill="none" xmlns="http://www.w3.org/2000/svg">
  <path
    d="M79.892 0.958742C75.3971 1.33561 71.13 2.31604 66.9142 3.89067C65.9723 4.24327 66.4518 5.72956 67.4125 5.55624C69.3043 5.22107 71.1873 4.82825 73.0524 4.39828C65.6514 9.90182 57.744 18.6321 56.4412 27.7429C53.8517 28.631 51.3816 29.9137 49.1828 31.2571C35.3094 39.7656 30.7739 55.2226 29.1452 70.5029C29.1098 70.8831 29.6808 70.9291 29.7366 70.558C31.2042 61.0506 32.945 51.2774 38.4325 43.1386C42.3542 37.3253 49.0314 31.4347 56.2988 29.0435C56.1485 31.0393 56.3311 33.0447 56.9195 35.0382C58.2261 39.4635 61.9565 43.2551 66.8071 43.025C70.7805 42.8339 74.354 39.9212 74.3271 35.7855C74.2966 31.0033 70.0843 27.4295 65.643 26.6965C63.3072 26.3085 60.9073 26.5325 58.5731 27.1176C58.612 26.9295 58.6508 26.7414 58.7037 26.5546C61.3335 16.6156 69.3707 8.24545 78.0064 3.13383C78.0961 3.08537 78.159 3.02022 78.2155 2.94737C78.4307 2.92479 78.6394 2.89449 78.8546 2.87192C78.2972 4.81559 77.492 6.52313 76.3167 8.23883C75.6681 9.17977 77.128 10.2034 77.7767 9.26247C79.372 6.92543 80.3115 4.69068 80.9168 1.92768C81.0513 1.32235 80.3927 0.920143 79.892 0.958742ZM64.1601 27.9787C67.404 28.2239 70.4672 29.7235 71.9702 32.7254C74.2573 37.2988 70.5893 41.8361 65.6662 41.3209C59.4424 40.6633 57.643 33.8273 58.341 28.4666C60.2638 28.0278 62.2206 27.8336 64.1601 27.9787Z"
    fill="#383838" />
  <path
    d="M5.27294 108.572C8.04494 108.572 10.2769 106.736 10.2769 103.838C10.2769 101.894 9.14294 100.418 7.52294 99.968V99.914C8.42294 99.518 9.03494 98.69 9.03494 97.682C9.03494 95.846 7.32494 94.73 5.07494 94.73C2.95094 94.73 1.18694 95.81 1.18694 97.61C1.18694 97.916 1.24094 98.222 1.33094 98.474L4.12094 98.096C4.08494 98.006 4.06694 97.862 4.06694 97.718C4.06694 97.232 4.42694 96.818 5.07494 96.818C5.75894 96.818 6.15494 97.196 6.15494 97.772C6.15494 98.528 5.70494 98.978 4.30094 99.266C2.03294 99.716 0.268938 101.228 0.268938 103.784C0.268938 106.718 2.48294 108.572 5.27294 108.572ZM5.27294 106.052C3.95894 106.052 3.11294 105.044 3.11294 103.784C3.11294 102.578 3.95894 101.552 5.27294 101.552C6.56894 101.552 7.45094 102.578 7.45094 103.784C7.45094 105.044 6.58694 106.052 5.27294 106.052ZM16.0759 104.252C18.9559 104.252 20.6479 102.38 20.6479 100.31C20.6479 97.142 17.6419 96.71 17.6059 94.982H14.6179C14.6179 98.33 17.7499 98.294 17.7499 100.292C17.7499 101.174 17.1019 101.876 16.0579 101.876C14.9239 101.876 14.3659 101.084 14.3659 100.22C14.3659 99.914 14.4019 99.662 14.5099 99.374L11.8279 98.798C11.6119 99.248 11.4679 99.77 11.4679 100.436C11.4679 102.47 13.1419 104.252 16.0759 104.252ZM26.1732 103.532C25.4892 102.344 25.0032 101.138 25.0032 99.662C25.0032 98.348 25.5972 97.25 26.9112 97.25C28.2612 97.25 28.8552 98.348 28.8552 99.662C28.8552 101.138 28.3692 102.344 27.6672 103.532L30.2592 104.288C31.0692 103.226 31.7532 101.624 31.7532 99.644C31.7532 96.44 29.4852 94.73 26.9112 94.73C24.3552 94.73 22.1052 96.44 22.1052 99.644C22.1052 101.624 22.7892 103.226 23.5992 104.288L26.1732 103.532ZM39.3886 108.464C42.4126 108.464 44.5546 106.736 44.5546 104.378C44.5546 102.452 43.6186 101.426 42.4666 101.066V101.012C43.5466 100.724 44.2306 99.914 44.2306 98.762C44.2306 96.53 42.3406 96.458 42.2506 94.982H39.2806C39.1906 97.61 41.2606 97.466 41.2606 98.924C41.2606 99.626 40.8466 100.058 39.9646 100.058H38.5786V102.29H39.6586C40.6666 102.29 41.5846 102.848 41.5846 104.162C41.5846 105.332 40.7386 106.034 39.4066 106.034C37.7326 106.034 36.1126 104.792 36.1126 101.174C36.1126 98.672 36.9586 96.692 37.7866 95.414L35.2486 94.694C34.3306 95.81 33.2146 98.06 33.2146 101.192C33.2146 105.53 35.5366 108.464 39.3886 108.464ZM50.5114 104.252C53.3914 104.252 55.0834 102.38 55.0834 100.31C55.0834 97.142 52.0774 96.71 52.0414 94.982H49.0534C49.0534 98.33 52.1854 98.294 52.1854 100.292C52.1854 101.174 51.5374 101.876 50.4934 101.876C49.3594 101.876 48.8014 101.084 48.8014 100.22C48.8014 99.914 48.8374 99.662 48.9454 99.374L46.2634 98.798C46.0474 99.248 45.9034 99.77 45.9034 100.436C45.9034 102.47 47.5774 104.252 50.5114 104.252ZM61.8507 104.252C65.1627 104.252 66.8547 101.948 66.8547 99.518C66.8547 96.836 65.0547 94.892 62.4987 94.892C61.4187 94.892 60.3747 95.378 59.8167 96.098H59.7627V94.352C59.7627 93.218 60.3387 92.696 61.3647 92.696H65.9367V90.392H61.0047C58.3407 90.392 56.8107 91.724 56.8107 94.334V98.978C56.8107 102.344 58.8987 104.252 61.8507 104.252ZM61.8147 101.804C60.5187 101.804 59.6187 100.796 59.6187 99.554C59.6187 98.276 60.5187 97.286 61.8147 97.286C63.2187 97.286 64.0107 98.312 64.0107 99.572C64.0107 100.778 63.2187 101.804 61.8147 101.804ZM72.4037 103.532C71.7197 102.344 71.2337 101.138 71.2337 99.662C71.2337 98.348 71.8277 97.25 73.1417 97.25C74.4917 97.25 75.0857 98.348 75.0857 99.662C75.0857 101.138 74.5997 102.344 73.8977 103.532L76.4897 104.288C77.2997 103.226 77.9837 101.624 77.9837 99.644C77.9837 96.44 75.7157 94.73 73.1417 94.73C70.5857 94.73 68.3357 96.44 68.3357 99.644C68.3357 101.624 69.0197 103.226 69.8297 104.288L72.4037 103.532ZM87.599 104V99.194H89.129C91.793 99.194 94.187 98.132 94.187 95.18C94.187 92.264 91.991 91.256 89.201 91.256H84.521V104H87.599ZM87.599 93.74H88.949C90.047 93.74 91.109 93.974 91.109 95.198C91.109 96.404 90.047 96.746 88.895 96.746H87.599V93.74ZM96.9453 93.794C97.8813 93.794 98.6373 93.092 98.6373 92.174C98.6373 91.274 97.8813 90.554 96.9453 90.554C95.9913 90.554 95.2533 91.31 95.2533 92.174C95.2533 93.056 95.9913 93.794 96.9453 93.794ZM98.4213 104V94.982H95.4692V104H98.4213ZM103.711 104V99.338C103.711 98.6 104.233 97.304 105.817 97.304C106.051 97.304 106.303 97.322 106.573 97.394L106.699 94.802C106.555 94.748 106.303 94.73 106.069 94.73C104.971 94.73 104.089 95.378 103.639 96.278H103.603V94.982H100.759V97.268V104H103.711ZM113.44 104L116.968 94.982H113.818L111.928 100.85H111.874L109.984 94.982H106.726L110.254 104H113.44ZM122.591 104.288C124.409 104.288 125.813 103.604 126.659 102.38L124.607 101.084C124.211 101.624 123.563 102.02 122.627 102.02C121.565 102.02 120.575 101.318 120.485 100.328H126.983C127.001 100.112 127.001 99.86 127.001 99.626C127.001 96.566 125.147 94.748 122.501 94.748C119.783 94.748 117.659 96.62 117.659 99.554C117.659 102.578 119.891 104.288 122.591 104.288ZM120.485 98.492C120.557 97.574 121.385 96.782 122.519 96.782C123.689 96.782 124.283 97.556 124.283 98.492H120.485ZM131.856 104V90.392H128.868V104H131.856ZM135.705 93.794C136.641 93.794 137.397 93.092 137.397 92.174C137.397 91.274 136.641 90.554 135.705 90.554C134.751 90.554 134.013 91.31 134.013 92.174C134.013 93.056 134.751 93.794 135.705 93.794ZM137.181 104V94.982H134.229V104H137.181Z"
    fill="#DB0060" />
  <path opacity="0.8"
    d="M3.75694 130.528C5.70294 130.528 7.07494 129.366 7.07494 127.644C7.07494 126.132 6.24894 125.278 5.17094 125.012V124.984C6.10894 124.76 6.83694 124.074 6.83694 122.884C6.83694 121.414 5.61894 120.252 3.79894 120.252C1.92294 120.252 0.718938 121.47 0.718938 122.884C0.718938 123.136 0.760938 123.374 0.830938 123.57L1.75494 123.388C1.71294 123.248 1.68494 123.066 1.68494 122.898C1.68494 121.806 2.55294 121.05 3.79894 121.05C5.10094 121.05 5.88494 121.862 5.88494 122.912C5.88494 124.158 4.87694 124.606 3.93894 124.606H3.29494V125.418H3.93894C4.98894 125.418 6.10894 126.02 6.10894 127.574C6.10894 128.904 5.14294 129.73 3.77094 129.73C2.34294 129.73 1.43294 128.75 1.43294 127.602C1.43294 127.294 1.47494 127.014 1.58694 126.734L0.718938 126.426C0.550938 126.776 0.466938 127.14 0.466938 127.616C0.466938 129.156 1.60094 130.528 3.75694 130.528ZM10.6604 126.804C10.0864 126.02 9.54036 125.096 9.54036 123.71C9.54036 122.296 10.2404 121.064 11.7664 121.064C13.2924 121.064 13.9924 122.296 13.9924 123.71C13.9924 125.096 13.4604 126.02 12.8724 126.804L13.6844 127.154C14.3284 126.398 14.9584 125.25 14.9584 123.696C14.9584 121.484 13.6284 120.252 11.7664 120.252C9.91836 120.252 8.57436 121.484 8.57436 123.696C8.57436 125.25 9.20436 126.398 9.84836 127.154L10.6604 126.804ZM24.5687 130.15C24.0647 128.834 22.8327 128.274 20.8307 127.896C18.9967 127.532 17.4567 126.062 17.4567 123.584C17.4567 121.946 18.0727 121.064 19.1507 121.064C19.9207 121.064 20.7887 121.624 20.7887 123.052V123.528C20.7887 125.474 22.0347 126.79 23.8827 126.79C25.7587 126.79 26.9767 125.446 26.9767 123.528C26.9767 121.596 25.7307 120.252 23.9527 120.252C22.6087 120.252 21.6567 120.98 21.3067 122.002H21.2787C21.0407 121.036 20.2707 120.252 19.0387 120.252C17.5407 120.252 16.4767 121.344 16.4767 123.514C16.4767 126.076 17.8767 127.588 19.4727 128.036V128.064H17.9607V128.778H19.9907C21.4747 128.778 23.2247 129.114 23.7567 130.5L24.5687 130.15ZM23.8827 125.992C22.5387 125.992 21.7267 124.928 21.7267 123.528C21.7267 122.114 22.5387 121.036 23.8827 121.036C25.2407 121.036 26.0387 122.114 26.0387 123.528C26.0387 124.928 25.2407 125.992 23.8827 125.992ZM31.7423 130.528C33.6603 130.528 34.9763 129.268 34.9763 127.182V123.556C34.9763 121.456 33.6603 120.252 31.8403 120.252C29.8943 120.252 28.7323 121.512 28.7323 122.94C28.7323 123.248 28.8163 123.598 28.8863 123.78L29.8103 123.612C29.7683 123.472 29.6983 123.192 29.6983 122.968C29.6983 121.75 30.6503 121.05 31.8403 121.05C33.1703 121.05 34.0243 122.03 34.0243 123.598V127.126C34.0243 128.75 33.1283 129.73 31.7703 129.73C30.3563 129.73 29.4603 128.708 29.4603 127.546C29.4603 127.112 29.5443 126.734 29.7123 126.384L28.8443 126.076C28.6203 126.482 28.4943 126.958 28.4943 127.56C28.4943 129.086 29.6143 130.528 31.7423 130.528ZM38.8654 126.804C38.2914 125.978 37.7594 124.942 37.7594 123.416C37.7594 121.932 38.4454 121.064 39.5234 121.064C40.4614 121.064 41.1054 121.736 41.1054 123.234V125.236H42.0714V123.234C42.0714 121.554 42.8694 121.064 43.6254 121.064C44.6474 121.064 45.4174 121.736 45.4174 123.416C45.4174 124.928 44.8994 125.964 44.2974 126.804L45.1094 127.154C45.7394 126.398 46.3974 125.11 46.3974 123.43C46.3974 121.26 45.1934 120.252 43.7094 120.252C42.5754 120.252 41.8334 121.008 41.6094 121.848H41.5814C41.3714 121.134 40.7274 120.252 39.4394 120.252C37.9554 120.252 36.7794 121.274 36.7794 123.43C36.7794 125.124 37.4374 126.398 38.0674 127.154L38.8654 126.804ZM54.9087 127.182C56.9667 127.182 58.2967 125.712 58.2967 123.542V119.608C58.2967 117.55 56.9527 116.234 54.9927 116.234C52.9487 116.234 51.7307 117.564 51.7307 118.992C51.7307 119.23 51.7587 119.426 51.8147 119.58L52.7387 119.398C52.7107 119.286 52.6967 119.146 52.6967 119.02C52.6967 117.816 53.6627 117.032 54.9927 117.032C56.4767 117.032 57.3447 118.082 57.3447 119.622V121.708H57.3027C56.8267 120.798 55.7907 120.28 54.7547 120.28C52.8087 120.28 51.4647 121.764 51.4647 123.738C51.4647 125.572 52.7947 127.182 54.9087 127.182ZM54.9087 126.384C53.3547 126.384 52.4587 125.166 52.4587 123.738C52.4587 122.296 53.3547 121.092 54.9087 121.092C56.3787 121.092 57.4007 122.268 57.4007 123.738C57.4007 125.18 56.4067 126.384 54.9087 126.384ZM63.3517 130.528C65.2697 130.528 66.5857 129.268 66.5857 127.182V123.556C66.5857 121.456 65.2697 120.252 63.4497 120.252C61.5037 120.252 60.3417 121.512 60.3417 122.94C60.3417 123.248 60.4257 123.598 60.4957 123.78L61.4197 123.612C61.3777 123.472 61.3077 123.192 61.3077 122.968C61.3077 121.75 62.2597 121.05 63.4497 121.05C64.7797 121.05 65.6337 122.03 65.6337 123.598V127.126C65.6337 128.75 64.7377 129.73 63.3797 129.73C61.9657 129.73 61.0697 128.708 61.0697 127.546C61.0697 127.112 61.1537 126.734 61.3217 126.384L60.4537 126.076C60.2297 126.482 60.1037 126.958 60.1037 127.56C60.1037 129.086 61.2237 130.528 63.3517 130.528ZM72.7148 130.528C75.3188 130.528 77.1808 128.484 77.1808 125.46C77.1808 122.492 75.4588 120.56 73.1208 120.35C73.1628 120.126 73.1908 119.678 73.1908 119.426V118.6H72.2388V119.412C72.2388 119.678 72.2668 120.126 72.3088 120.35C69.9708 120.56 68.2768 122.492 68.2768 125.46C68.2768 128.484 70.1248 130.528 72.7148 130.528ZM72.7148 129.744C70.5448 129.744 69.2428 127.868 69.2428 125.46C69.2428 123.052 70.4608 121.372 72.3088 121.134C72.2668 121.428 72.2528 121.834 72.2528 122.156V125.544H73.1908V122.156C73.1908 121.834 73.1628 121.428 73.1208 121.134C74.9828 121.372 76.2008 123.052 76.2008 125.46C76.2008 127.868 74.8988 129.744 72.7148 129.744ZM80.6467 126.804C80.0727 126.02 79.5267 125.096 79.5267 123.71C79.5267 122.296 80.2267 121.064 81.7527 121.064C83.2787 121.064 83.9787 122.296 83.9787 123.71C83.9787 125.096 83.4467 126.02 82.8587 126.804L83.6707 127.154C84.3147 126.398 84.9447 125.25 84.9447 123.696C84.9447 121.484 83.6147 120.252 81.7527 120.252C79.9047 120.252 78.5607 121.484 78.5607 123.696C78.5607 125.25 79.1907 126.398 79.8347 127.154L80.6467 126.804ZM92.049 126.804C91.475 126.02 90.929 125.096 90.929 123.71C90.929 122.296 91.629 121.064 93.155 121.064C94.681 121.064 95.381 122.296 95.381 123.71C95.381 125.096 94.849 126.02 94.261 126.804L95.073 127.154C95.717 126.398 96.347 125.25 96.347 123.696C96.347 121.484 95.017 120.252 93.155 120.252C91.307 120.252 89.963 121.484 89.963 123.696C89.963 125.25 90.593 126.398 91.237 127.154L92.049 126.804ZM101.561 127.182C103.731 127.182 104.977 125.502 104.977 123.738C104.977 121.736 103.633 120.252 101.715 120.252C100.651 120.252 99.6434 120.77 99.1534 121.694H99.1114V119.132C99.1114 117.844 99.7134 117.228 100.987 117.228H104.221V116.416H100.917C99.2514 116.416 98.1594 117.172 98.1594 119.118V123.542C98.1594 125.698 99.4894 127.182 101.561 127.182ZM101.533 126.384C100.035 126.384 99.0554 125.18 99.0554 123.724C99.0554 122.226 100.077 121.036 101.533 121.036C103.087 121.036 103.997 122.268 103.997 123.738C103.997 125.166 103.087 126.384 101.533 126.384ZM112.526 130.528C114.514 130.528 116.222 129.492 116.222 127.602C116.222 126.454 115.774 125.67 114.864 125.362V125.334C115.83 125.068 116.516 124.242 116.516 122.94C116.516 121.372 115.55 120.252 114.038 120.252C112.834 120.252 112.078 120.994 111.84 121.876H111.812C111.49 120.938 110.594 120.252 109.362 120.252C107.682 120.252 106.506 121.526 106.506 123.332C106.506 125.124 107.668 126.412 109.418 126.412C111.14 126.412 112.316 125.152 112.316 123.332C112.316 123.178 112.302 123.024 112.302 122.87C112.302 121.582 113.156 121.05 113.912 121.05C114.99 121.05 115.536 121.848 115.536 123.08C115.536 124.382 114.654 124.928 113.702 124.928H113.338V125.74H113.618C114.598 125.74 115.27 126.412 115.27 127.574C115.27 128.96 114.052 129.744 112.526 129.744C111.238 129.744 109.978 129.086 109.978 127.98C109.978 127.938 109.978 127.868 109.992 127.84L109.082 127.728C109.068 127.826 109.054 127.924 109.054 128.036C109.054 129.548 110.65 130.528 112.526 130.528ZM109.404 125.656C108.158 125.656 107.416 124.634 107.416 123.332C107.416 122.03 108.158 120.994 109.404 120.994C110.664 120.994 111.42 122.03 111.42 123.332C111.42 124.634 110.678 125.656 109.404 125.656ZM120.117 126.804C119.543 125.978 119.011 124.942 119.011 123.416C119.011 121.932 119.697 121.064 120.775 121.064C121.713 121.064 122.357 121.736 122.357 123.234V125.236H123.323V123.234C123.323 121.554 124.121 121.064 124.877 121.064C125.899 121.064 126.669 121.736 126.669 123.416C126.669 124.928 126.151 125.964 125.549 126.804L126.361 127.154C126.991 126.398 127.649 125.11 127.649 123.43C127.649 121.26 126.445 120.252 124.961 120.252C123.827 120.252 123.085 121.008 122.861 121.848H122.833C122.623 121.134 121.979 120.252 120.691 120.252C119.207 120.252 118.031 121.274 118.031 123.43C118.031 125.124 118.689 126.398 119.319 127.154L120.117 126.804ZM131.233 126.804C130.659 125.978 130.127 124.942 130.127 123.36C130.127 121.806 130.897 121.092 131.933 121.092C132.857 121.092 133.473 121.764 133.473 123.234V125.236H134.439V123.234C134.439 121.582 135.209 121.092 135.965 121.092C137.057 121.092 137.785 121.82 137.785 123.416C137.785 124.928 137.267 125.964 136.665 126.804L137.477 127.154C138.107 126.398 138.765 125.11 138.765 123.43C138.765 121.316 137.617 120.28 136.105 120.28C134.957 120.28 134.201 121.036 133.977 121.876H133.949C133.739 121.148 133.151 120.28 131.947 120.28C131.121 120.28 130.351 120.63 129.931 121.638H129.889C130.169 120.084 130.995 119.02 132.829 118.46L133.473 118.25C134.719 117.872 135.699 117.382 135.965 116.514L135.125 116.248C134.803 116.864 134.117 117.186 133.193 117.494L132.549 117.704C129.959 118.614 129.147 120.182 129.147 122.814C129.147 124.774 129.609 126.146 130.435 127.154L131.233 126.804ZM143.776 127.182C145.834 127.182 147.164 125.712 147.164 123.542V119.608C147.164 117.55 145.82 116.234 143.86 116.234C141.816 116.234 140.598 117.564 140.598 118.992C140.598 119.23 140.626 119.426 140.682 119.58L141.606 119.398C141.578 119.286 141.564 119.146 141.564 119.02C141.564 117.816 142.53 117.032 143.86 117.032C145.344 117.032 146.212 118.082 146.212 119.622V121.708H146.17C145.694 120.798 144.658 120.28 143.622 120.28C141.676 120.28 140.332 121.764 140.332 123.738C140.332 125.572 141.662 127.182 143.776 127.182ZM143.776 126.384C142.222 126.384 141.326 125.166 141.326 123.738C141.326 122.296 142.222 121.092 143.776 121.092C145.246 121.092 146.268 122.268 146.268 123.738C146.268 125.18 145.274 126.384 143.776 126.384ZM151.869 127.182C153.871 127.182 154.893 125.852 154.893 124.508C154.893 122.128 152.457 121.988 152.415 120.434H151.435C151.435 122.562 153.927 122.52 153.927 124.508C153.927 125.516 153.185 126.37 151.869 126.37C150.553 126.37 149.811 125.516 149.811 124.522C149.811 124.2 149.853 123.948 149.951 123.71L149.083 123.402C148.943 123.682 148.831 124.088 148.831 124.536C148.831 125.824 149.839 127.182 151.869 127.182ZM160.72 130.43C162.848 130.43 164.276 129.282 164.276 127.546C164.276 126.076 163.478 125.208 162.386 124.97V124.942C163.31 124.788 163.954 124.172 163.954 123.304C163.954 121.638 162.26 121.484 162.162 120.434H161.196C161.196 121.904 163.002 121.89 163.002 123.304C163.002 124.172 162.204 124.536 161.28 124.536H160.188V125.362H161.098C162.218 125.362 163.31 125.964 163.31 127.476C163.31 128.848 162.26 129.632 160.748 129.632C158.97 129.632 157.374 128.218 157.374 125.194C157.374 123.01 158.088 121.554 158.816 120.616L158.06 120.28C157.276 121.176 156.408 122.842 156.408 125.194C156.408 128.54 158.214 130.43 160.72 130.43ZM167.86 126.804C167.286 126.02 166.74 125.096 166.74 123.71C166.74 122.296 167.44 121.064 168.966 121.064C170.492 121.064 171.192 122.296 171.192 123.71C171.192 125.096 170.66 126.02 170.072 126.804L170.884 127.154C171.528 126.398 172.158 125.25 172.158 123.696C172.158 121.484 170.828 120.252 168.966 120.252C167.118 120.252 165.774 121.484 165.774 123.696C165.774 125.25 166.404 126.398 167.048 127.154L167.86 126.804ZM175.762 126.804C175.188 126.02 174.642 125.096 174.642 123.71C174.642 122.296 175.342 121.064 176.868 121.064C178.394 121.064 179.094 122.296 179.094 123.71C179.094 125.096 178.562 126.02 177.974 126.804L178.786 127.154C179.43 126.398 180.06 125.25 180.06 123.696C180.06 121.484 178.73 120.252 176.868 120.252C175.02 120.252 173.676 121.484 173.676 123.696C173.676 125.25 174.306 126.398 174.95 127.154L175.762 126.804ZM185.33 127.182C187.43 127.182 188.718 125.754 188.718 124.242C188.718 122.254 187.15 121.946 187.136 120.434H186.17C186.17 122.324 187.738 122.52 187.738 124.214C187.738 125.488 186.786 126.37 185.344 126.37C183.958 126.37 182.922 125.404 182.922 123.556V116.416H181.956V123.542C181.956 125.838 183.37 127.182 185.33 127.182ZM199.711 127.154C200.341 126.398 200.985 125.11 200.985 123.43C200.985 121.26 199.893 120.252 198.395 120.252C197.191 120.252 196.379 121.064 196.155 122.058H196.127C195.735 121.008 194.755 120.252 193.369 120.252C191.535 120.252 190.233 121.666 190.233 123.724C190.233 125.754 191.507 127.182 193.439 127.182C195.371 127.182 196.659 125.782 196.659 123.724C196.659 123.514 196.645 123.36 196.645 123.178C196.645 121.638 197.555 121.064 198.311 121.064C199.361 121.064 200.019 121.862 200.019 123.416C200.019 124.928 199.501 125.964 198.899 126.804L199.711 127.154ZM193.439 126.37C192.025 126.37 191.213 125.236 191.213 123.724C191.213 122.184 192.025 121.05 193.439 121.05C194.853 121.05 195.693 122.184 195.693 123.724C195.693 125.236 194.867 126.37 193.439 126.37ZM205.786 130.528C207.732 130.528 209.104 129.366 209.104 127.644C209.104 126.132 208.278 125.278 207.2 125.012V124.984C208.138 124.76 208.866 124.074 208.866 122.884C208.866 121.414 207.648 120.252 205.828 120.252C203.952 120.252 202.748 121.47 202.748 122.884C202.748 123.136 202.79 123.374 202.86 123.57L203.784 123.388C203.742 123.248 203.714 123.066 203.714 122.898C203.714 121.806 204.582 121.05 205.828 121.05C207.13 121.05 207.914 121.862 207.914 122.912C207.914 124.158 206.906 124.606 205.968 124.606H205.324V125.418H205.968C207.018 125.418 208.138 126.02 208.138 127.574C208.138 128.904 207.172 129.73 205.8 129.73C204.372 129.73 203.462 128.75 203.462 127.602C203.462 127.294 203.504 127.014 203.616 126.734L202.748 126.426C202.58 126.776 202.496 127.14 202.496 127.616C202.496 129.156 203.63 130.528 205.786 130.528ZM212.69 126.804C212.116 126.02 211.57 125.096 211.57 123.71C211.57 122.296 212.27 121.064 213.796 121.064C215.322 121.064 216.022 122.296 216.022 123.71C216.022 125.096 215.49 126.02 214.902 126.804L215.714 127.154C216.358 126.398 216.988 125.25 216.988 123.696C216.988 121.484 215.658 120.252 213.796 120.252C211.948 120.252 210.604 121.484 210.604 123.696C210.604 125.25 211.234 126.398 211.878 127.154L212.69 126.804ZM222.258 127.182C224.358 127.182 225.646 125.754 225.646 124.242C225.646 122.254 224.078 121.946 224.064 120.434H223.098C223.098 122.324 224.666 122.52 224.666 124.214C224.666 125.488 223.714 126.37 222.272 126.37C220.886 126.37 219.85 125.404 219.85 123.556V116.416H218.884V123.542C218.884 125.838 220.298 127.182 222.258 127.182Z"
    fill="#383838" />
</svg>
  